<svg xmlns="http://www.w3.org/2000/svg" viewBox="0 0 153.71 153.71"><defs><style>.cls-1{fill:#1cbfe5;}.cls-2{fill:#fdfefe;}</style></defs><title>Asset 4</title><g id="Layer_2" data-name="Layer 2"><g id="Layer_1-2" data-name="Layer 1"><circle class="cls-1" cx="76.85" cy="76.85" r="76.85"/><path class="cls-2" d="M133.26,96.41a28.93,28.93,0,0,1-20.78,8.48c-7.36,0-14.72,0-22.08,0-3.85,0-6.49-2.42-6.47-5.79s2.61-5.74,6.5-5.76c7.57,0,15.15.11,22.71,0A17.19,17.19,0,0,0,128,67.9a16.56,16.56,0,0,0-15.24-9.14c-7.5-.08-15,0-22.5,0-4.42,0-7.27-3.49-6.1-7.35.7-2.3,2.3-4,4.74-4.08,9.43-.11,18.93-1,28.29.33,21.45,2.94,31.73,28.31,18.73,45.6A30.07,30.07,0,0,1,133.26,96.41Z"/><path class="cls-2" d="M23.05,55.66a28.85,28.85,0,0,1,20.77-8.49c7.36,0,14.72,0,22.09,0,3.85,0,6.49,2.41,6.48,5.78s-2.61,5.75-6.5,5.77c-7.57,0-15.14-.12-22.71.05A17.18,17.18,0,0,0,28.3,84.15,16.54,16.54,0,0,0,43.53,93.3c7.43.08,14.86,0,22.29,0,3.34,0,5.46,1.42,6.29,4.07,1,3.36-1.2,7.29-4.7,7.35-9.43.17-18.93,1-28.29-.31C17.67,101.5,7.38,76.12,20.38,58.84A30,30,0,0,1,23.05,55.66Z"/><path class="cls-2" d="M50.85,80a5.65,5.65,0,0,1-1.21-5.85,5.42,5.42,0,0,1,4.93-3.84c1.3-.13,2.63,0,4,0,14.1,0,28.2,0,42.3,0,4.9,0,7.66,4.43,5.43,8.58a5.29,5.29,0,0,1-4.92,2.92q-23.11,0-46.25,0A5.87,5.87,0,0,1,50.85,80Z"/></g></g></svg>