<svg xmlns="http://www.w3.org/2000/svg" viewBox="0 0 86.58 23.95"><defs><style>.cls-1{fill:#1cbfe5;}.cls-2{fill:#e0203d;}.cls-3{fill:#3968b2;}</style></defs><title>Asset 3</title><g id="Layer_2" data-name="Layer 2"><g id="Layer_1-2" data-name="Layer 1"><polygon class="cls-1" points="4.41 19.78 4.41 1.54 0 1.54 0 23.69 11.55 23.69 11.55 19.78 4.41 19.78"/><rect class="cls-2" x="12.9" y="5.9" width="4.41" height="17.79"/><path class="cls-1" d="M33.89,7.63h0a7.38,7.38,0,0,0-5.35-2,7.63,7.63,0,0,0-3.39.76,7.74,7.74,0,0,0-.89.53v-1H19.85V23.69h4.41V14a4.64,4.64,0,0,1,1-3.24,3.56,3.56,0,0,1,2.72-1,3.42,3.42,0,0,1,2.64,1,4.35,4.35,0,0,1,1,3.07v10H36V13.36A7.66,7.66,0,0,0,33.89,7.63Z"/><polygon class="cls-1" points="45.16 14.77 53.54 5.9 47.4 5.9 42.49 11.55 42.49 0.28 38.08 0.28 38.08 23.69 42.49 23.69 42.49 18.03 47.52 23.69 53.57 23.69 45.16 14.77"/><path class="cls-3" d="M68.08,9.84V5.9H63.89v-4H59.48v4H57.4V9.84h2.08v8.59a5.2,5.2,0,0,0,1.4,4,5.57,5.57,0,0,0,3.93,1.26h3.27v-4H65.25c-.82,0-1.07-.18-1.12-.24s-.24-.28-.24-1V9.84Z"/><path class="cls-3" d="M82.14.28V7.37A7.83,7.83,0,0,0,81,6.61a8.08,8.08,0,0,0-3.9-1,8.46,8.46,0,0,0-4.35,1.14A8.07,8.07,0,0,0,69.66,10a9.89,9.89,0,0,0-1.1,4.73,10.22,10.22,0,0,0,1.09,4.74,8.31,8.31,0,0,0,3.06,3.29A8.19,8.19,0,0,0,77,24a7.91,7.91,0,0,0,4.08-1,7.73,7.73,0,0,0,1-.72v1.5h4.44V.28Zm-2.27,19a4.51,4.51,0,0,1-2.3.6,4.41,4.41,0,0,1-2.28-.6,4.31,4.31,0,0,1-1.64-1.74A5.89,5.89,0,0,1,73,14.74,5.78,5.78,0,0,1,73.65,12a4.34,4.34,0,0,1,1.63-1.71,4.53,4.53,0,0,1,2.29-.58,4.41,4.41,0,0,1,2.3.6A4.35,4.35,0,0,1,81.52,12a5.78,5.78,0,0,1,.62,2.75,5.74,5.74,0,0,1-.63,2.76A4.25,4.25,0,0,1,79.87,19.27Z"/><path class="cls-2" d="M19.82,4.26A2.47,2.47,0,0,1,18,5H16.13a.5.5,0,1,1,0-1c.65,0,1.3,0,1.95,0a1.47,1.47,0,0,0,1.28-2.18A1.41,1.41,0,0,0,18.06,1c-.65,0-1.29,0-1.94,0A.5.5,0,0,1,15.6.38.46.46,0,0,1,16,0a16.41,16.41,0,0,1,2.43,0A2.48,2.48,0,0,1,20.06,4,3.08,3.08,0,0,1,19.82,4.26Z"/><path class="cls-2" d="M10.33.75A2.51,2.51,0,0,1,12.12,0H14a.51.51,0,0,1,.56.5A.51.51,0,0,1,14,1c-.65,0-1.3,0-1.95,0a1.48,1.48,0,0,0-1.28,2.19A1.4,1.4,0,0,0,12.1,4H14a.51.51,0,0,1,.54.35.47.47,0,0,1-.41.63,15.15,15.15,0,0,1-2.43,0A2.47,2.47,0,0,1,10.1,1Z"/><path class="cls-2" d="M12.73,2.85a.49.49,0,0,1-.11-.51A.49.49,0,0,1,13.05,2h4a.49.49,0,0,1,.47.74.45.45,0,0,1-.42.25h-4A.53.53,0,0,1,12.73,2.85Z"/></g></g></svg>